<svg width="34" height="34" viewBox="0 0 34 34" fill="none" xmlns="http://www.w3.org/2000/svg">
<path d="M22.3331 19.5503C22.3416 19.7158 22.3136 19.8879 22.2438 20.0574C22.174 20.227 22.0808 20.3885 21.9548 20.5426C21.742 20.8025 21.5026 20.9946 21.2276 21.1241C20.9572 21.2533 20.661 21.3285 20.3386 21.3451C19.8689 21.3693 19.3613 21.2848 18.8201 21.0868C18.2789 20.8888 17.7337 20.6126 17.1891 20.258C16.6339 19.8948 16.1068 19.4904 15.6123 19.0484C15.1225 18.6043 14.6671 18.1238 14.25 17.611C13.8454 17.1063 13.5144 16.5978 13.2666 16.0896C13.0186 15.5768 12.8822 15.0813 12.8576 14.6031C12.8415 14.2904 12.8813 13.9887 12.9776 13.7071C13.0737 13.421 13.2354 13.1545 13.4676 12.912C13.7474 12.6071 14.0624 12.448 14.4032 12.4304C14.5321 12.4238 14.6625 12.4447 14.7805 12.4939C14.903 12.5429 15.0132 12.6203 15.1023 12.7355L16.2481 14.184C16.3369 14.2947 16.4022 14.3974 16.4489 14.4964C16.4953 14.5908 16.5233 14.6862 16.5278 14.7736C16.5335 14.8839 16.5069 14.9959 16.4479 15.105C16.3935 15.2139 16.2069 15.4448 16.2069 15.4448L15.8114 16.0138C15.8114 16.0138 16.1008 16.4985 16.3309 16.7754C16.7368 17.264 17.2748 17.7527 17.803 18.1056C18.1039 18.3066 18.6197 18.543 18.6197 18.543L19.1367 18.0922C19.1367 18.0922 19.3519 17.8783 19.455 17.8176C19.5576 17.7478 19.6619 17.7102 19.777 17.7042C19.8645 17.6997 19.9575 17.7134 20.061 17.7495C20.1644 17.7857 20.2734 17.84 20.3926 17.9122L21.9725 18.9142C22.0965 18.9908 22.1843 19.0831 22.2409 19.1955C22.2929 19.308 22.3265 19.4216 22.3331 19.5503Z" fill="white"/>
<path d="M17.3545 26.2083C22.6357 26.2083 26.917 21.9271 26.917 16.6458C26.917 11.3646 22.6357 7.08333 17.3545 7.08333C12.0733 7.08333 7.79199 11.3646 7.79199 16.6458C7.79199 18.7162 8.44996 20.6329 9.5682 22.1982L7.79199 26.2083L12.1105 24.6435C13.6163 25.6328 15.4182 26.2083 17.3545 26.2083Z" stroke="white" stroke-linejoin="round"/>
<rect x="0.5" y="0.5" width="33" height="33" rx="9.5" stroke="white"/>
</svg>
