<svg width="41" height="42" viewBox="0 0 41 42" fill="none" xmlns="http://www.w3.org/2000/svg">
<path d="M37.5832 31.8136C37.5832 32.4286 37.4463 33.0607 37.1554 33.6757C36.8646 34.2907 36.4882 34.8715 35.992 35.4182C35.1537 36.3407 34.2298 37.0069 33.1862 37.434C32.1596 37.8611 31.0475 38.0832 29.8499 38.0832C28.1048 38.0832 26.2399 37.6732 24.2724 36.8361C22.3048 35.999 20.3373 34.8715 18.3869 33.4536C16.399 32.0017 14.5231 30.4027 12.7751 28.6703C11.045 26.9312 9.44931 25.0638 8.00172 23.084C6.59878 21.1365 5.46958 19.189 4.64835 17.2586C3.82712 15.3111 3.4165 13.449 3.4165 11.6723C3.4165 10.5107 3.62181 9.40025 4.03243 8.37525C4.44304 7.33317 5.09319 6.3765 5.99996 5.52234C7.09494 4.44609 8.29257 3.9165 9.55863 3.9165C10.0377 3.9165 10.5167 4.019 10.9445 4.224C11.3893 4.429 11.7828 4.7365 12.0908 5.18067L16.0601 10.7669C16.368 11.194 16.5904 11.5869 16.7444 11.9628C16.8984 12.3215 16.9839 12.6803 16.9839 13.0048C16.9839 13.4148 16.8642 13.8248 16.6247 14.2178C16.4022 14.6107 15.6665 15.4307 15.6665 15.4307L14.0925 17.4636C14.0925 17.4636 15.0722 19.3148 15.8719 20.3848C17.2828 22.2729 19.1831 24.1865 21.073 25.5953C22.1493 26.3975 24.0157 27.3719 24.0157 27.3719L26.0175 25.8003C26.0175 25.8003 26.8558 25.0486 27.2493 24.8436C27.6428 24.6044 28.0364 24.4848 28.4641 24.4848C28.7891 24.4848 29.1313 24.5532 29.5077 24.7069C29.8841 24.8607 30.2776 25.0828 30.7054 25.3732L36.3684 29.3878C36.8133 29.6953 37.1212 30.054 37.3094 30.4811C37.4805 30.9082 37.5832 31.3353 37.5832 31.8136Z" stroke="#0095DA" stroke-width="2" stroke-miterlimit="10"/>
</svg>
